<?xml version="1.0" encoding="utf-8"?>
<!-- Generator: Adobe Illustrator 18.1.0, SVG Export Plug-In . SVG Version: 6.00 Build 0)  -->
<!DOCTYPE svg PUBLIC "-//W3C//DTD SVG 1.1//EN" "http://www.w3.org/Graphics/SVG/1.1/DTD/svg11.dtd">
<svg version="1.1" id="Layer_1" xmlns="http://www.w3.org/2000/svg" xmlns:xlink="http://www.w3.org/1999/xlink" x="0px" y="0px"
	 viewBox="0 0 1024 1024" enable-background="new 0 0 1024 1024" xml:space="preserve">
<path fill="#FFDA00" d="M749.5,677.9l-212,122.4c-15.5,8.9-34.5,8.9-50,0l-212-122.4c-15.5-8.9-25-25.4-25-43.3V389.8
	c0-17.9,9.5-34.4,25-43.3l212-122.4c15.5-8.9,34.5-8.9,50,0l212,122.4c15.5,8.9,25,25.4,25,43.3v244.8
	C774.5,652.5,765,669,749.5,677.9z"/>
<g>
	<path d="M366.2,404.6h37.4c6.2,0,11.3,5.1,11.3,11.3v192.6c0,6.2-5.1,11.3-11.3,11.3h-37.4c-6.2,0-11.3-5.1-11.3-11.3V415.9
		C354.9,409.7,360,404.6,366.2,404.6z"/>
	<path d="M461,512c0-84.5,55.6-108.3,104.6-108.3c49,0,104.6,23.8,104.6,108.3s-55.6,108.8-104.6,108.8
		C516.6,620.8,461,596.5,461,512z M611.4,512c0-41.1-15.9-61.2-45.8-61.2c-29.9,0-45.8,20.1-45.8,61.2c0,40.6,15.9,61.6,45.8,61.6
		C595.5,573.6,611.4,552.6,611.4,512z"/>
</g>
</svg>
