<svg xmlns="http://www.w3.org/2000/svg" width="375" height="375" viewBox="0 0 375 375">
  <path d="M38.6 73.5c63-82.2 180.8-97.8 262.9-34.9 82.2 63 97.8 180.8 34.9 262.9-63 82.2-180.8 97.8-262.9 34.9-82.2-63-97.8-180.8-34.9-262.9z" fill="#191919"/>
  <path d="M154.5 226.5c-21.6-18.2-24.3-50.5-6-72 18.2-21.6 50.5-24.3 72-6 21.6 18.2 24.3 50.5 6 72-18.2 21.6-50.5 24.3-72 6zm49.8-36.2c1.6-9.3-4.7-18.1-14-19.6-9.3-1.6-18.1 4.7-19.6 14-1.6 9.3 4.7 18.1 14 19.6 9.3 1.6 18.1-4.7 19.6-14z" fill="#fff"/>
  <path d="M95.5 238.6v-71.1c11 4 23.1 3.9 34 0v71.1h-34z" fill="#fff"/>
  <path d="M115.3 102.5c9.3 1.6 15.6 10.3 14 19.6-1.5 9.3-10.3 15.6-19.6 14-9.3-1.5-15.6-10.3-14-19.6 1.5-9.3 10.3-15.5 19.6-14z" fill="#fff"/>
  <path d="M278.2 318.6c.9-2.5 1.9-5 2.8-7.6 3 1 5.7 1.9 8.3-.1 2.5-2 3.2-4.2-.2-7.6l-23-23.3c2.4-1.9 4.7-4 6.9-6.1 7.9 7.6 15.8 15.3 23.6 22.9 7.2 6.9 5.9 14.5-1 20-6.2 4.8-12.4 4.2-17.4 1.8M303.9 296.2c.8-3 1.6-6 2.3-9.1 3.9.6 7.6.2 10.6-3.8 2.4-3.4 2.3-7 .3-9-2.4-2.3-4.7-.7-8.8 1.7-.8.5-1.6.9-2.3 1.3-6.7 3.8-12.8 4.6-18.5-.8-5.2-5-5.4-12.7 0-20.1 3.9-5.3 8-8.1 13.7-7.2-.2 3.6-.4 7-.7 10.4-3.1-.6-5.1.2-6.8 2.6-1.8 2.4-1.6 5.1.1 6.7 2.1 2 4.2 1.4 8.1-.9.7-.5 1.5-1 2.2-1.4 7.5-4.9 12-6.9 17.8-1.1 6 6.2 6.9 15.8 1.3 23.5-5.6 7.5-13.2 9-19.3 7.2" fill="#fff"/>
</svg>
