<svg xmlns="http://www.w3.org/2000/svg" width="375" height="375" viewBox="0 0 375 375">
  <path d="M170.8 4L37 81.3c-9.3 5.3-16.8 18.3-16.8 28.9v154.6c0 10.6 7.5 23.6 16.7 28.9L170.8 371c9.2 5.3 24.2 5.3 33.4 0l133.9-77.3c9.2-5.3 16.7-18.3 16.7-28.9V110.2c0-10.6-7.5-23.6-16.7-28.9L204.2 4C195-1.3 180-1.3 170.8 4z" fill="#191919"/>
  <path d="M176 238.9c-19.8-16.7-22.2-46.3-5.5-66.1 16.7-19.7 46.3-22.2 66-5.5 19.8 16.7 22.3 46.3 5.5 66.1-16.7 19.8-46.3 22.2-66 5.5zm45.7-33.2c1.4-8.5-4.4-16.6-12.9-18-8.5-1.4-16.5 4.3-18 12.9-1.4 8.5 4.4 16.5 12.9 17.9 8.5 1.4 16.5-4.3 18-12.8z" fill="#fff"/>
  <path d="M121.9 250v-65.2c10.1 3.6 21.2 3.6 31.2 0V250h-31.2z" fill="#fff"/>
  <path d="M140.1 125.2c8.5 1.4 14.2 9.5 12.8 18-1.4 8.5-9.5 14.3-18 12.8-8.5-1.4-14.2-9.4-12.8-17.9 1.4-8.5 9.5-14.3 18-12.9z" fill="#fff"/>
  <path d="M286 366l8-4.8c1.5 2.7 3 5 6.3 5 3.2 0 5.3-1.2 5.3-6.1v-33.4h9.8v33.5c0 10.2-6 14.8-14.7 14.8-7.8 0-12.4-4.1-14.7-9M320.7 365l8-4.6c2.1 3.4 4.8 5.9 9.6 5.9 4.1 0 6.7-2 6.7-4.8 0-3.4-2.7-4.6-7.2-6.5l-2.4-1.1c-7.1-3-11.8-6.8-11.8-14.8 0-7.3 5.6-12.9 14.4-12.9 6.2 0 10.7 2.1 13.9 7.8l-7.6 4.9c-1.7-3-3.5-4.2-6.3-4.2-2.9 0-4.7 1.8-4.7 4.2 0 3 1.8 4.2 6 6l2.5 1c8.3 3.6 13 7.2 13 15.4 0 8.9-6.9 13.7-16.3 13.7-9.1 0-14.9-4.4-17.8-10" fill="#191919"/>
</svg>
