<?xml version="1.0" encoding="utf-8"?>
<!DOCTYPE svg PUBLIC "-//W3C//DTD SVG 1.1//EN" "http://www.w3.org/Graphics/SVG/1.1/DTD/svg11.dtd">
<svg version="1.1" xmlns="http://www.w3.org/2000/svg" xmlns:xlink="http://www.w3.org/1999/xlink" x="0px" y="0px"
	viewBox="0 0 500 500" enable-background="new 0 0 500 500" xml:space="preserve">
	<g id="Layer_7">
		<g>
			<g>
				<polygon fill="#028236" points="250,339.8 198.6,307.6 189.5,189.1 250,156.8 250.1,102.1 136.1,163.1 149.7,335.1 249.9,398.7"/>
					<g>
						<polygon fill="#028236" points="250.1,398.7 350.3,335.1 363.3,163.3 250.1,102.1 250,42.8 425.6,135.1 400.1,361.9,249.9,457.2"/>
						</g>
					</g>
					<g>
						<g>
							<polygon fill="#029B47" points="249.9,398.7 149.7,335.1 136.1,163.1 250.1,102.1 250,42.8 74.4,135.1 99.9,361.9 249.9,457.2"/>
							</g>
							<polygon fill="#029B47" points="250,339.8 301.3,307.6 310.5,189.1 250,156.8 250.1,102.1 363.3,163.3 350.3,335.1 250.1,398.7"/>
							</g>
							<polygon fill="#006837" points="249.9,172.7 199.9,200.3 203.6,255.9 250,282.4"/>
							<polygon fill="#006837" points="250,282.4 198.6,307.6 206.5,429.8 249.9,457.2"/>
							<polygon fill="#0C4C0E" points="249.9,172.7 298.8,200.3 295.8,254.9 250,282.4"/>
							<polygon fill="#0C4C0E" points="250,282.4 301.3,307.6 293.5,429.5 249.9,457.2"/>
							<polygon fill="#258C2A" points="250,226.3 298.8,200.3 249.9,172.7 199.9,200.3"/>
							<polygon fill="#258C2A" points="301.2,307.6 250,282.4 198.6,307.6 249.9,335.7"/>
							<g>
								<g>
									<polygon fill="#48C14E" points="136.1,163.1 250.1,102.1 250,42.8 74.4,135.1"/>
								</g>
								<g>
									<polygon fill="#48C14E" points="363.3,163.3 250.1,102.1 250,42.8 425.6,135.1"/>
								</g>
								<polygon fill="#48C14E" points="198.6,307.6 149.7,335.1 202.9,368.9"/>
								<polygon fill="#48C14E" points="301.3,307.6 350.3,335.1 297.4,368.7"/>
							</g>
						</g>
					</g>
					<g id="Layer_8">
					</g>
				</svg>
