<?xml version="1.0" encoding="utf-8"?>
<!-- Generator: Adobe Illustrator 17.1.0, SVG Export Plug-In . SVG Version: 6.00 Build 0)  -->
<!DOCTYPE svg PUBLIC "-//W3C//DTD SVG 1.1//EN" "http://www.w3.org/Graphics/SVG/1.1/DTD/svg11.dtd">
<svg version="1.1" id="Layer_1" xmlns="http://www.w3.org/2000/svg" xmlns:xlink="http://www.w3.org/1999/xlink" x="0px" y="0px"
	 viewBox="0 0 500 500" enable-background="new 0 0 500 500" xml:space="preserve">
<g>
	<ellipse fill="#FFFFFF" cx="168" cy="248.4" rx="82.9" ry="81.9"/>
	<g>
		<path fill="#39B54A" d="M358.2,274.5c0,3.3-0.3,5.9-0.9,7.9c-0.5,1.7-1.2,3-2.1,3.9c-0.9,0.9-1.9,1.5-3.2,1.8
			c-1.6,0.4-3.4,0.6-5.5,0.6c-2.7,0-5.5-0.5-8.4-1.5c-3-1.1-5.4-2.2-7.1-3.3l-3.8-2.6l-8.8,18.2l3,1.9c3.6,2.4,7.7,4.2,12.1,5.5
			c4.4,1.3,9.1,1.9,13.9,1.9c6,0,11.3-0.8,15.6-2.4c4.5-1.6,8.2-4.1,11.1-7.2c2.8-3.1,4.8-6.8,6.1-11.1c1.2-4.1,1.8-8.7,1.8-13.7
			v-81.7h-23.8V274.5z"/>
		<path fill="#39B54A" d="M459.1,262.4c-1.6-3.6-3.8-6.8-6.3-9.5c-2.5-2.6-5.3-4.9-8.3-6.9c-2.8-1.9-5.7-3.6-8.4-5.2
			c-2.7-1.5-5.2-3-7.5-4.4c-2.1-1.3-4-2.7-5.6-4.2c-1.5-1.4-2.7-3-3.6-4.7c-0.8-1.5-1.2-3.4-1.2-5.6c0-3.9,1.2-6.7,3.6-8.7
			c2.7-2.1,6.5-3.2,11.2-3.2c2.8,0,5.5,0.3,8,1c2.5,0.7,4.8,1.6,7,2.9l3.9,2.2l8.3-18.3l-3.3-1.8c-2.9-1.6-6.6-2.9-10.9-4
			c-4.3-1.1-9-1.7-13.9-1.7c-5.2,0-10.1,0.7-14.6,2.2c-4.6,1.5-8.6,3.6-12,6.4c-3.4,2.8-6.1,6.2-8.1,10.2c-2,4-2.9,8.5-2.9,13.4
			c0,4.9,0.9,9.4,2.6,13.1c1.7,3.7,3.9,6.9,6.6,9.7c2.6,2.7,5.5,5,8.7,7c3,1.9,5.8,3.6,8.4,5.2c2.3,1.4,4.6,2.8,6.7,4.2
			c2,1.3,3.7,2.7,5.2,4.2c1.4,1.4,2.5,3,3.4,4.8c0.8,1.6,1.2,3.4,1.2,5.5c0,4-1.2,7.1-3.8,9.3c-2.7,2.4-6.7,3.6-11.9,3.6
			c-3.8,0-7.1-0.4-9.9-1.3c-2.9-0.9-5.8-2.1-8.6-3.6l-3.8-2.1l-8.2,18.3l3.2,1.8c3.5,2,7.6,3.6,12.1,4.8c4.5,1.2,9.8,1.8,15.7,1.8
			c6.5,0,12.3-0.9,17.2-2.6c5-1.7,9.2-4.2,12.6-7.2c3.4-3.1,6-6.8,7.6-10.9c1.6-4,2.4-8.3,2.4-12.8
			C461.7,270.5,460.8,266.1,459.1,262.4z"/>
	</g>
	<g>
		<path fill="#6D6E71" d="M168,92.1L36.9,176.9v142.4L168,407.4l131.1-88.1V176.9L168,92.1z M168,328.9c-43.7,0-79.2-35.5-79.2-79.2
			c0-43.7,35.5-79.2,79.2-79.2c43.7,0,79.2,35.5,79.2,79.2C247.2,293.5,211.7,328.9,168,328.9z"/>
		<path fill="#39B54A" d="M186.1,247.8c-11.6,0-21-9.4-21-21c0-4.1,1.2-7.9,3.2-11.2c-1.1-0.1-2.1-0.2-3.2-0.2
			c-19.5,0-35.3,15.8-35.3,35.3c0,19.5,15.8,35.3,35.3,35.3s35.3-15.8,35.3-35.3c0-2.7-0.3-5.3-0.9-7.9
			C195.9,246,191.2,247.8,186.1,247.8z"/>
		<path fill="#E6E7E8" d="M243.3,237.2c-5.4,42.6-41.8,75.6-85.9,75.6c-15.4,0-29.8-4-42.3-11c13.7,14.1,32.8,22.8,54,22.8
			c41.5,0,75.2-33.7,75.2-75.2C244.3,245.3,244,241.2,243.3,237.2z"/>
	</g>
</g>
</svg>
