<?xml version="1.0" encoding="utf-8"?>
<!-- Generator: Adobe Illustrator 17.1.0, SVG Export Plug-In . SVG Version: 6.00 Build 0)  -->
<!DOCTYPE svg PUBLIC "-//W3C//DTD SVG 1.1//EN" "http://www.w3.org/Graphics/SVG/1.1/DTD/svg11.dtd">
<svg version="1.1" id="Layer_1" xmlns="http://www.w3.org/2000/svg" xmlns:xlink="http://www.w3.org/1999/xlink" x="0px" y="0px"
	 viewBox="0 0 500 500" enable-background="new 0 0 500 500" xml:space="preserve">
<g>
	<ellipse cx="175.9" cy="242.5" rx="78.8" ry="77.9"/>
	<g>
		<path fill="#FFFFFF" d="M356.8,267.3c0,3.1-0.3,5.6-0.8,7.6c-0.5,1.6-1.1,2.9-2,3.7c-0.9,0.8-1.8,1.4-3,1.7
			c-1.5,0.4-3.3,0.6-5.3,0.6c-2.5,0-5.2-0.5-8-1.5c-2.8-1-5.1-2.1-6.7-3.1l-3.7-2.4l-8.4,17.3l2.8,1.8c3.4,2.2,7.3,4,11.5,5.2
			c4.2,1.2,8.6,1.8,13.2,1.8c5.7,0,10.7-0.8,14.9-2.3c4.3-1.6,7.8-3.9,10.5-6.8c2.6-2.9,4.6-6.5,5.8-10.5c1.2-3.9,1.7-8.3,1.7-13.1
			v-77.7h-22.6V267.3z"/>
		<path fill="#FFFFFF" d="M452.9,255.7c-1.6-3.4-3.6-6.5-6-9c-2.4-2.5-5-4.7-7.9-6.6c-2.7-1.8-5.4-3.4-8-4.9c-2.6-1.5-5-2.9-7.2-4.2
			c-2-1.2-3.8-2.5-5.3-4c-1.4-1.3-2.5-2.9-3.4-4.5c-0.8-1.5-1.1-3.3-1.1-5.3c0-3.7,1.1-6.4,3.4-8.2c2.6-2,6.2-3,10.7-3
			c2.6,0,5.2,0.3,7.6,1c2.4,0.6,4.6,1.6,6.6,2.7l3.7,2.1l7.9-17.4l-3.2-1.7c-2.8-1.5-6.3-2.8-10.3-3.8c-4.1-1-8.5-1.6-13.3-1.6
			c-4.9,0-9.6,0.7-13.9,2.1c-4.4,1.4-8.2,3.4-11.4,6.1c-3.2,2.7-5.8,5.9-7.7,9.7c-1.9,3.8-2.8,8.1-2.8,12.7c0,4.7,0.8,8.9,2.5,12.5
			c1.6,3.5,3.7,6.6,6.3,9.2c2.5,2.5,5.3,4.8,8.3,6.7c2.8,1.8,5.5,3.4,8,5c2.2,1.3,4.3,2.7,6.4,4c1.9,1.2,3.5,2.5,4.9,4
			c1.3,1.4,2.4,2.9,3.2,4.5c0.7,1.5,1.1,3.3,1.1,5.3c0,3.8-1.2,6.7-3.6,8.9c-2.5,2.2-6.3,3.4-11.3,3.4c-3.6,0-6.8-0.4-9.5-1.2
			c-2.8-0.8-5.5-2-8.2-3.4l-3.6-2L388,292l3,1.7c3.4,1.9,7.2,3.4,11.5,4.6c4.3,1.1,9.3,1.7,15,1.7c6.2,0,11.7-0.8,16.3-2.5
			c4.7-1.7,8.8-4,11.9-6.9c3.3-2.9,5.7-6.4,7.2-10.4c1.5-3.8,2.3-7.9,2.3-12.1C455.3,263.4,454.5,259.3,452.9,255.7z"/>
	</g>
	<g>
		<path fill="#FFFFFF" d="M175.9,93.8L51.2,174.4v135.5l124.7,83.8l124.7-83.8V174.4L175.9,93.8z M175.9,319.1
			c-41.6,0-75.3-33.7-75.3-75.3c0-41.6,33.7-75.3,75.3-75.3c41.6,0,75.3,33.7,75.3,75.3C251.3,285.3,217.6,319.1,175.9,319.1z"/>
		<path fill="#FFFFFF" d="M193.2,241.9c-11,0-20-8.9-20-20c0-3.9,1.1-7.5,3.1-10.6c-1-0.1-2-0.2-3.1-0.2c-18.6,0-33.6,15-33.6,33.6
			c0,18.6,15,33.6,33.6,33.6s33.6-15,33.6-33.6c0-2.6-0.3-5.1-0.9-7.5C202.5,240.2,198.1,241.9,193.2,241.9z"/>
	</g>
</g>
</svg>
