<?xml version="1.0" encoding="utf-8"?>
<svg viewBox="0 0 500 500" version="1.1" xmlns="http://www.w3.org/2000/svg" xmlns:xlink="http://www.w3.org/1999/xlink" xml:space="preserve">
    <path d="M149.909,76.8092C179.348,59.7593 213.534,50 250,50C360.457,50 450,139.543 450,250C450,360.457 360.457,450 250,450C139.543,450 50,360.457 50,250C50,217.398 57.8008,186.618 71.6382,159.423C80.9252,182.296 103.364,198.425 129.57,198.425C164.088,198.425 192.07,170.443 192.07,135.925C192.07,108.528 174.442,85.2482 149.909,76.8092Z" style="fill:#612a1e"/>
    <clipPath id="eclipse">
        <path d="M149.909,76.8092C179.348,59.7593 213.534,50 250,50C360.457,50 450,139.543 450,250C450,360.457 360.457,450 250,450C139.543,450 50,360.457 50,250C50,217.398 57.8008,186.618 71.6382,159.423C80.9252,182.296 103.364,198.425 129.57,198.425C164.088,198.425 192.07,170.443 192.07,135.925C192.07,108.528 174.442,85.2482 149.909,76.8092Z"/>
    </clipPath>
    <g clip-path="url(#eclipse)">
        <path d="M240.37,27.1969C350.827,27.1969 440.37,116.74 440.37,227.197C440.37,337.654 350.827,427.197 240.37,427.197C129.913,427.197 40.3701,337.654 40.3701,227.197C40.3701,116.74 129.913,27.1969 240.37,27.1969Z" style="fill:#ffc271"/>
        <path d="M220.462,-23.1926C330.919,-23.1926 420.462,66.3505 420.462,176.807C420.462,287.264 330.919,376.807 220.462,376.807C110.005,376.807 20.4617,287.264 20.4617,176.807C20.4617,66.3505 110.005,-23.1926 220.462,-23.1926Z" style="fill:#d44428"/>
        <path d="M376.837,264.255C389.658,248.472 403.324,244.682 407.361,255.791C411.398,266.9 404.277,288.701 391.457,304.484C378.636,320.268 364.97,324.058 360.933,312.949C356.896,301.84 364.017,280.039 376.837,264.255Z" style="fill:#ffc271"/>
        <path d="M384.798,265.478C394.685,253.306 405.324,250.659 408.561,259.565C411.797,268.472 406.406,285.56 396.519,297.732C386.632,309.904 375.993,312.551 372.756,303.645C369.52,294.738 374.911,277.65 384.798,265.478Z" style="fill:#d44428"/>
    </g>
</svg>
