<?xml version="1.0" encoding="UTF-8" standalone="no"?>
<!-- Created with Inkscape (http://www.inkscape.org/) -->

<svg
   xmlns:dc="http://purl.org/dc/elements/1.1/"
   xmlns:cc="http://creativecommons.org/ns#"
   xmlns:rdf="http://www.w3.org/1999/02/22-rdf-syntax-ns#"
   xmlns:svg="http://www.w3.org/2000/svg"
   xmlns="http://www.w3.org/2000/svg"
   xmlns:sodipodi="http://sodipodi.sourceforge.net/DTD/sodipodi-0.dtd"
   xmlns:inkscape="http://www.inkscape.org/namespaces/inkscape"
   width="300"
   height="300"
   id="svg4619"
   version="1.1"
   inkscape:version="0.48.5 r10040"
   sodipodi:docname="io-hex-simple.svg"
   inkscape:export-filename="/home/cho2/logos/logos/io-hex-simple/io-hex-simple-60px.png"
   inkscape:export-xdpi="60"
   inkscape:export-ydpi="60">
  <defs
     id="defs4621" />
  <sodipodi:namedview
     id="base"
     pagecolor="#ffffff"
     bordercolor="#666666"
     borderopacity="1.0"
     inkscape:pageopacity="0.0"
     inkscape:pageshadow="2"
     inkscape:zoom="1.4"
     inkscape:cx="202.34403"
     inkscape:cy="132.87559"
     inkscape:document-units="px"
     inkscape:current-layer="g4694"
     showgrid="false"
     inkscape:window-width="1366"
     inkscape:window-height="713"
     inkscape:window-x="0"
     inkscape:window-y="24"
     inkscape:window-maximized="1"
     showguides="true"
     inkscape:guide-bbox="true">
    <sodipodi:guide
       orientation="1,0"
       position="0,300"
       id="guide4646" />
    <sodipodi:guide
       orientation="0,1"
       position="-91.428571,0"
       id="guide4648" />
    <sodipodi:guide
       orientation="1,0"
       position="300,168.57143"
       id="guide4650" />
    <sodipodi:guide
       orientation="0,1"
       position="-101.42857,300"
       id="guide4652" />
    <sodipodi:guide
       orientation="1,0"
       position="150,381.42857"
       id="guide4654" />
    <sodipodi:guide
       orientation="0,1"
       position="-164.28571,150"
       id="guide4656" />
    <sodipodi:guide
       orientation="1,0"
       position="180,317.85714"
       id="guide4692" />
    <sodipodi:guide
       orientation="0,1"
       position="-45.961941,180"
       id="guide5223" />
  </sodipodi:namedview>
  <metadata
     id="metadata4624">
    <rdf:RDF>
      <cc:Work
         rdf:about="">
        <dc:format>image/svg+xml</dc:format>
        <dc:type
           rdf:resource="http://purl.org/dc/dcmitype/StillImage" />
        <dc:title></dc:title>
      </cc:Work>
    </rdf:RDF>
  </metadata>
  <g
     inkscape:label="Layer 1"
     inkscape:groupmode="layer"
     id="layer1"
     transform="translate(0,-752.36218)">
    <rect
       y="752.36218"
       x="0"
       height="300"
       width="300"
       id="rect5225"
       style="fill:#ffffff;fill-opacity:1;fill-rule:nonzero;stroke:none" />
    <rect
       style="fill:#000000;fill-opacity:1;fill-rule:nonzero;stroke:none"
       id="rect4713"
       width="300"
       height="300"
       x="300"
       y="752.36218"
       inkscape:export-filename="/home/cho2/logos/logos/io-hex-simple/io-hex-simple-dark-60px.png"
       inkscape:export-xdpi="59.999977"
       inkscape:export-ydpi="59.999977" />
    <g
       id="g4694">
      <g
         id="g5246">
        <path
           style="fill:#c0392b;fill-opacity:0.50000000000000000;fill-rule:evenodd;stroke:none"
           id="path4611"
           inkscape:connector-curvature="0"
           d="m 298.09701,895.25266 c 2.53732,4.3899 2.53732,9.80373 0,14.19337 l -67.85842,117.59327 c -2.53442,4.3973 -7.22212,7.1041 -12.30124,7.1041 l -135.819333,0 c -5.075688,0 -9.76025,-2.7068 -12.30152,-7.0964 L 1.9030076,909.45367 c -2.53734345,-4.39728 -2.53734345,-9.81111 0,-14.20839 L 69.816497,777.68239 c 2.54127,-4.39464 7.225832,-7.10169 12.30152,-7.10169 l 135.826693,0 c 5.07176,0 9.75946,2.70705 12.29388,7.10433 l 67.85842,117.56763"
           inkscape:export-filename="/home/cho2/Gambar/iojs-simple3.png"
           inkscape:export-xdpi="300.62518"
           inkscape:export-ydpi="300.62518" />
        <path
           inkscape:export-ydpi="300.62518"
           inkscape:export-xdpi="300.62518"
           inkscape:export-filename="/home/cho2/Gambar/iojs-simple3.png"
           d="m 142.89052,754.26512 c 4.38987,-2.53732 9.8036,-2.53732 14.19342,0 l 117.59311,67.85841 c 4.39738,2.53441 7.10423,7.22214 7.10423,12.30125 l 0,135.81945 c 0,5.07568 -2.70685,9.76025 -7.09666,12.30152 l -117.59303,67.91345 c -4.39747,2.5374 -9.8112,2.5374 -14.20851,0 L 25.320148,982.54575 c -4.39459,-2.54127 -7.101456,-7.22584 -7.101456,-12.30152 l 0,-135.82685 c 0,-5.07171 2.706866,-9.75946 7.10425,-12.29388 L 142.89052,754.26509"
           inkscape:connector-curvature="0"
           id="path4613"
           style="fill:#c0392b;fill-opacity:1;fill-rule:evenodd;stroke:none" />
        <g
           style="font-size:105.42503357px;font-style:normal;font-variant:normal;font-weight:normal;font-stretch:normal;line-height:125%;letter-spacing:0px;word-spacing:0px;fill:#ffffff;fill-opacity:1;stroke:none;font-family:Monospace;-inkscape-font-specification:Monospace"
           id="text4615"
           transform="matrix(1.261604,0,0,1.261604,-62.139829,-246.73154)">
          <path
             d="m 206.96144,967.586 -15.0313,0 0,-55.69819 15.0313,0 0,55.69819 m 0,-69.03075 -15.0313,0 0,-11.27348 15.0313,0 0,11.27348"
             style="font-weight:bold;fill:#ffffff;font-family:Roboto;-inkscape-font-specification:Roboto Bold"
             id="path4688"
             inkscape:connector-curvature="0" />
          <path
             d="m 217.05094,939.22213 c 0,-8.47652 2.28215,-15.32296 6.84645,-20.53935 4.56429,-5.21628 11.01607,-7.82445 19.35538,-7.82451 8.40788,6e-5 14.89399,2.60823 19.45833,7.82451 4.59857,5.21639 6.89787,12.06283 6.89793,20.53935 l 0,1.08102 c -6e-5,8.54521 -2.2822,15.40882 -6.84645,20.59083 -4.56435,5.14771 -11.03329,7.72156 -19.40685,7.72156 -8.40795,0 -14.89405,-2.57385 -19.45834,-7.72156 -4.5643,-5.18201 -6.84645,-12.04562 -6.84645,-20.59083 l 0,-1.08102 m 14.97983,1.08102 c -2e-5,5.18205 0.87509,9.28305 2.62533,12.30302 1.7502,2.98568 4.65007,4.47852 8.69963,4.47851 3.94654,10e-6 6.79493,-1.50999 8.54519,-4.52999 1.7845,-3.01996 2.67676,-7.10381 2.67681,-12.25154 l 0,-1.08102 c -5e-5,-5.04471 -0.89231,-9.09424 -2.67681,-12.14858 -1.78458,-3.08858 -4.66729,-4.63289 -8.64815,-4.63294 -3.9466,5e-5 -6.81215,1.54436 -8.59667,4.63294 -1.75024,3.08866 -2.62535,7.13818 -2.62533,12.14858 l 0,1.08102"
             style="font-weight:bold;fill:#ffffff;font-family:Roboto;-inkscape-font-specification:Roboto Bold"
             id="path4690"
             inkscape:connector-curvature="0" />
        </g>
      </g>
      <g
         id="g5253"
         transform="translate(300,0)"
         inkscape:export-filename="/home/cho2/logos/logos/io-hex-simple/io-hex-simple-dark-60px.png"
         inkscape:export-xdpi="59.999977"
         inkscape:export-ydpi="59.999977">
        <path
           inkscape:export-ydpi="300.62518"
           inkscape:export-xdpi="300.62518"
           inkscape:export-filename="/home/cho2/Gambar/iojs-simple3.png"
           d="m 298.09701,895.25266 c 2.53732,4.3899 2.53732,9.80373 0,14.19337 l -67.85842,117.59327 c -2.53442,4.3973 -7.22212,7.1041 -12.30124,7.1041 l -135.819333,0 c -5.075688,0 -9.76025,-2.7068 -12.30152,-7.0964 L 1.9030076,909.45367 c -2.53734345,-4.39728 -2.53734345,-9.81111 0,-14.20839 L 69.816497,777.68239 c 2.54127,-4.39464 7.225832,-7.10169 12.30152,-7.10169 l 135.826693,0 c 5.07176,0 9.75946,2.70705 12.29388,7.10433 l 67.85842,117.56763"
           inkscape:connector-curvature="0"
           id="path5255"
           style="fill:#c0392b;fill-opacity:0.5;fill-rule:evenodd;stroke:none" />
        <path
           style="fill:#c0392b;fill-opacity:1;fill-rule:evenodd;stroke:none"
           id="path5257"
           inkscape:connector-curvature="0"
           d="m 142.89052,754.26512 c 4.38987,-2.53732 9.8036,-2.53732 14.19342,0 l 117.59311,67.85841 c 4.39738,2.53441 7.10423,7.22214 7.10423,12.30125 l 0,135.81945 c 0,5.07568 -2.70685,9.76025 -7.09666,12.30152 l -117.59303,67.91345 c -4.39747,2.5374 -9.8112,2.5374 -14.20851,0 L 25.320148,982.54575 c -4.39459,-2.54127 -7.101456,-7.22584 -7.101456,-12.30152 l 0,-135.82685 c 0,-5.07171 2.706866,-9.75946 7.10425,-12.29388 L 142.89052,754.26509"
           inkscape:export-filename="/home/cho2/Gambar/iojs-simple3.png"
           inkscape:export-xdpi="300.62518"
           inkscape:export-ydpi="300.62518" />
        <g
           transform="matrix(1.261604,0,0,1.261604,-62.139829,-246.73154)"
           id="g5259"
           style="font-size:105.42503357px;font-style:normal;font-variant:normal;font-weight:normal;font-stretch:normal;line-height:125%;letter-spacing:0px;word-spacing:0px;fill:#ffffff;fill-opacity:1;stroke:none;font-family:Monospace;-inkscape-font-specification:Monospace">
          <path
             inkscape:connector-curvature="0"
             id="path5261"
             style="font-weight:bold;fill:#ffffff;font-family:Roboto;-inkscape-font-specification:Roboto Bold"
             d="m 206.96144,967.586 -15.0313,0 0,-55.69819 15.0313,0 0,55.69819 m 0,-69.03075 -15.0313,0 0,-11.27348 15.0313,0 0,11.27348" />
          <path
             inkscape:connector-curvature="0"
             id="path5263"
             style="font-weight:bold;fill:#ffffff;font-family:Roboto;-inkscape-font-specification:Roboto Bold"
             d="m 217.05094,939.22213 c 0,-8.47652 2.28215,-15.32296 6.84645,-20.53935 4.56429,-5.21628 11.01607,-7.82445 19.35538,-7.82451 8.40788,6e-5 14.89399,2.60823 19.45833,7.82451 4.59857,5.21639 6.89787,12.06283 6.89793,20.53935 l 0,1.08102 c -6e-5,8.54521 -2.2822,15.40882 -6.84645,20.59083 -4.56435,5.14771 -11.03329,7.72156 -19.40685,7.72156 -8.40795,0 -14.89405,-2.57385 -19.45834,-7.72156 -4.5643,-5.18201 -6.84645,-12.04562 -6.84645,-20.59083 l 0,-1.08102 m 14.97983,1.08102 c -2e-5,5.18205 0.87509,9.28305 2.62533,12.30302 1.7502,2.98568 4.65007,4.47852 8.69963,4.47851 3.94654,10e-6 6.79493,-1.50999 8.54519,-4.52999 1.7845,-3.01996 2.67676,-7.10381 2.67681,-12.25154 l 0,-1.08102 c -5e-5,-5.04471 -0.89231,-9.09424 -2.67681,-12.14858 -1.78458,-3.08858 -4.66729,-4.63289 -8.64815,-4.63294 -3.9466,5e-5 -6.81215,1.54436 -8.59667,4.63294 -1.75024,3.08866 -2.62535,7.13818 -2.62533,12.14858 l 0,1.08102" />
        </g>
      </g>
    </g>
  </g>
</svg>
