<?xml version="1.0" encoding="utf-8"?>
<!-- Generator: Adobe Illustrator 18.1.0, SVG Export Plug-In . SVG Version: 6.00 Build 0)  -->
<!DOCTYPE svg PUBLIC "-//W3C//DTD SVG 1.1//EN" "http://www.w3.org/Graphics/SVG/1.1/DTD/svg11.dtd">
<svg version="1.1" id="Layer_1" xmlns="http://www.w3.org/2000/svg" xmlns:xlink="http://www.w3.org/1999/xlink" x="0px" y="0px"
	 viewBox="0 0 500 500" enable-background="new 0 0 500 500" xml:space="preserve">
<polygon fill="#F0D95A" points="34.8,125 250,0 465.2,125 465.2,375 250,500 34.8,375 "/>
<path d="M300.3,332.5c-45.5,0-82.8-37.1-82.8-82.5c0-45.5,37.3-82.5,82.8-82.5c45.4,0,83.1,36.8,83.1,82.5
	C383.4,295.4,345.7,332.5,300.3,332.5z M300.3,201c-27,0-48,21.7-48,49c0,27,21,49,48,49c27.2,0,48.5-22,48.5-49
	C348.8,222.8,327.5,201,300.3,201z"/>
<path d="M140.7,329.2V170.8h34.8v158.4H140.7z"/>
</svg>
