<?xml version="1.0" encoding="utf-8"?>
<svg version="1.1" id="Layer_1" xmlns="http://www.w3.org/2000/svg" xmlns:xlink="http://www.w3.org/1999/xlink" x="0px" y="0px"
   viewBox="0 0 500 500" enable-background="new 0 0 500 500" xml:space="preserve">
<path fill="#DD5500" d="M460.5,137.7h-70.2V95.6c0-14.4-11.3-28-28.1-28c-41.9,0-29,70.1-56.1,70.1H193.9
  c-25.1,0-16.1-70.2-56.1-70.2c-16.4,0-28.1,13.6-28.1,28.1v42.1H39.5c-14.2,0-28.1,11.5-28.1,28.1c0,23.9,40.5,79.9,98.2,68.7V264
  c0,60.6,31.2,168.4,112.3,168.4h56.1c68.3,0,112.3-84.3,112.3-168.4v-29.4c56.3,10.7,98.2-40.6,98.2-68.9
  C488.6,146.3,471.8,137.7,460.5,137.7z M191.4,318.9c0,8.7-7.1,15.8-15.8,15.8s-15.8-7.1-15.8-15.8v-81.7c0-8.7,7.1-15.8,15.8-15.8
  s15.8,7.1,15.8,15.8V318.9z M301.9,336c-31.9,0-57.9-26-57.9-57.9s26-57.9,57.9-57.9s57.9,26,57.9,57.9S333.9,336,301.9,336z
   M328.2,278.1c0,14.5-11.8,26.3-26.3,26.3c-14.5,0-26.3-11.8-26.3-26.3c0-14.5,11.8-26.3,26.3-26.3
  C316.4,251.8,328.2,263.6,328.2,278.1z"/>
</svg>
