<?xml version="1.0" encoding="UTF-8" standalone="no"?>
<svg
   xmlns:dc="http://purl.org/dc/elements/1.1/"
   xmlns:cc="http://creativecommons.org/ns#"
   xmlns:rdf="http://www.w3.org/1999/02/22-rdf-syntax-ns#"
   xmlns:svg="http://www.w3.org/2000/svg"
   xmlns="http://www.w3.org/2000/svg"
   xmlns:sodipodi="http://sodipodi.sourceforge.net/DTD/sodipodi-0.dtd"
   xmlns:inkscape="http://www.inkscape.org/namespaces/inkscape"
   width="1.66667in"
   height="1.66667in"
   viewBox="0 0 500 500"
   id="svg3020"
   version="1.1"
   inkscape:version="0.48.5 r10040"
   sodipodi:docname="reultri_io">
  <metadata
     id="metadata3027">
    <rdf:RDF>
      <cc:Work
         rdf:about="">
        <dc:format>image/svg+xml</dc:format>
        <dc:type
           rdf:resource="http://purl.org/dc/dcmitype/StillImage" />
        <dc:title></dc:title>
      </cc:Work>
    </rdf:RDF>
  </metadata>
  <defs
     id="defs3025" />
  <sodipodi:namedview
     pagecolor="#ffffff"
     bordercolor="#666666"
     borderopacity="1"
     objecttolerance="10"
     gridtolerance="10"
     guidetolerance="10"
     inkscape:pageopacity="0"
     inkscape:pageshadow="2"
     inkscape:window-width="1920"
     inkscape:window-height="978"
     id="namedview3023"
     showgrid="false"
     inkscape:zoom="5.4606865"
     inkscape:cx="74.962364"
     inkscape:cy="75.376657"
     inkscape:window-x="0"
     inkscape:window-y="31"
     inkscape:window-maximized="1"
     inkscape:current-layer="svg3020" />
  <path
     style="fill:#ff9800;fill-opacity:1;stroke:none;stroke-opacity:1"
     d="m 115.13789,147.24176 c -4.03078,-0.53055 -14.98855,-2.71465 -18.867366,-3.76065 C 80.319602,139.17965 62.047609,130.06634 47.553283,119.18299 28.887336,105.16729 14.210459,87.078073 4.0875297,65.611539 2.0925929,61.381106 1.275216,59.230357 1.2788366,58.221079 1.2836592,56.876755 3.0393575,54.477492 8.0548273,48.961296 15.033379,41.286033 20.749274,35.954001 27.388294,30.926219 48.639798,14.832277 70.991122,5.3948618 95.144114,2.3176296 100.85925,1.5894879 102.53822,1.5183033 114.63749,1.4911533 l 11.95224,-0.02682 3.7547,0.5162401 c 2.06509,0.283932 4.08187,0.6075682 4.48175,0.7191916 1.52394,0.4254027 2.12096,1.5788717 5.19571,10.0382591 2.30446,6.340144 2.88141,8.233646 4.40174,14.446009 2.68952,10.989892 4.21949,22.928672 4.22227,32.947497 0.001,5.599395 -0.37399,14.085707 -0.76016,17.177756 -3.18281,25.484784 -10.40572,44.522214 -25.37489,66.880604 -2.17568,3.24966 -2.47049,3.61173 -2.92503,3.59234 -0.27802,-0.0119 -2.27959,-0.25507 -4.44793,-0.54047 z M 99.489063,86.217236 c 2.375687,-0.240965 3.621307,-0.550824 5.644997,-1.404239 4.89213,-2.063067 8.69744,-5.871834 10.49793,-10.507472 1.75162,-4.509804 1.75212,-10.313396 0.001,-14.831067 -2.69627,-6.957124 -8.37783,-11.357951 -15.62327,-12.101472 -3.356351,-0.344428 -5.731488,-0.257493 -7.613975,0.278682 -2.194423,0.625022 -5.866751,2.467974 -7.382107,3.704697 -6.831218,5.575145 -9.08043,15.22677 -5.464952,23.450734 2.804863,6.380096 8.614719,10.687877 15.382404,11.405449 2.089307,0.22153 2.41655,0.221866 4.557694,0.0047 l -4.1e-5,-6e-6 z M 70.36309,66.514522 l 0,-19.336709 -6.101389,0 -6.101388,0 0,19.336709 0,19.336708 6.101388,0 6.101389,0 0,-19.336708 z"
     id="path3807"
     inkscape:connector-curvature="0"
     transform="scale(3.3333269,3.3333269)" />
  <path
     style="fill:#ff9800;fill-opacity:1;stroke:none"
     d="m 95.749792,74.571461 c -1.859049,-0.319704 -3.765871,-1.587017 -4.926907,-3.274526 -1.448985,-2.106028 -1.723183,-5.262673 -0.651873,-7.504571 0.721309,-1.509464 2.134564,-2.887963 3.757991,-3.665572 3.060712,-1.466057 6.897757,-0.717911 9.017187,1.75817 2.48502,2.903186 2.50092,6.999346 0.0393,10.124841 -1.50035,1.904987 -4.623893,3.010815 -7.235698,2.561658 z"
     id="path3809"
     inkscape:connector-curvature="0"
     transform="scale(3.3333269,3.3333269)" />
</svg>
