<?xml version="1.0" encoding="utf-8"?>
<!-- Generator: Adobe Illustrator 17.1.0, SVG Export Plug-In . SVG Version: 6.00 Build 0)  -->
<!DOCTYPE svg PUBLIC "-//W3C//DTD SVG 1.1//EN" "http://www.w3.org/Graphics/SVG/1.1/DTD/svg11.dtd">
<svg version="1.1" id="Layer_1" xmlns="http://www.w3.org/2000/svg" xmlns:xlink="http://www.w3.org/1999/xlink" x="0px" y="0px"
	 viewBox="0 0 500 500" enable-background="new 0 0 500 500" xml:space="preserve">
<g>
	<ellipse fill="#FFFFFF" cx="168" cy="249.4" rx="83.9" ry="82.9"/>
	<g>
		<path d="M360.5,275.8c0,3.3-0.3,6-0.9,8c-0.5,1.7-1.2,3.1-2.1,3.9c-0.9,0.9-2,1.5-3.2,1.8c-1.6,0.4-3.5,0.6-5.6,0.6
			c-2.7,0-5.6-0.5-8.5-1.5c-3-1.1-5.4-2.2-7.1-3.3l-3.9-2.6l-8.9,18.4l3,2c3.6,2.4,7.8,4.2,12.3,5.5c4.5,1.3,9.2,1.9,14,1.9
			c6.1,0,11.4-0.8,15.8-2.4c4.6-1.7,8.3-4.1,11.2-7.3c2.8-3.1,4.9-6.9,6.2-11.2c1.2-4.1,1.9-8.8,1.9-13.9v-82.7h-24.1V275.8z"/>
		<path d="M462.7,263.5c-1.7-3.6-3.8-6.9-6.4-9.6c-2.5-2.6-5.3-5-8.4-7c-2.9-1.9-5.8-3.6-8.5-5.2c-2.7-1.6-5.3-3-7.6-4.4
			c-2.1-1.3-4-2.7-5.6-4.2c-1.5-1.4-2.7-3-3.6-4.8c-0.8-1.6-1.2-3.5-1.2-5.7c0-4,1.2-6.8,3.7-8.8c2.7-2.1,6.6-3.2,11.4-3.2
			c2.8,0,5.5,0.3,8.1,1c2.5,0.7,4.9,1.7,7.1,2.9l3.9,2.3l8.4-18.6l-3.4-1.8c-3-1.6-6.7-2.9-11-4.1c-4.3-1.1-9.1-1.7-14.1-1.7
			c-5.2,0-10.2,0.7-14.8,2.2c-4.7,1.5-8.7,3.7-12.1,6.4c-3.5,2.8-6.2,6.3-8.2,10.3c-2,4-3,8.6-3,13.5c0,5,0.9,9.5,2.7,13.3
			c1.7,3.7,4,7,6.7,9.8c2.6,2.7,5.6,5.1,8.8,7.1c3,1.9,5.9,3.7,8.5,5.3c2.3,1.4,4.6,2.9,6.8,4.3c2,1.3,3.7,2.7,5.2,4.2
			c1.4,1.4,2.6,3.1,3.4,4.8c0.8,1.6,1.2,3.5,1.2,5.6c0,4.1-1.3,7.2-3.9,9.5c-2.7,2.4-6.8,3.6-12.1,3.6c-3.8,0-7.2-0.4-10.1-1.3
			c-3-0.9-5.9-2.1-8.7-3.6l-3.9-2.1l-8.3,18.5l3.2,1.8c3.6,2,7.7,3.6,12.3,4.9c4.6,1.2,9.9,1.8,15.9,1.8c6.6,0,12.4-0.9,17.4-2.6
			c5-1.8,9.3-4.2,12.7-7.3c3.5-3.1,6.1-6.8,7.7-11c1.6-4.1,2.4-8.4,2.4-12.9C465.3,271.7,464.4,267.3,462.7,263.5z"/>
	</g>
	<g>
		<path d="M168,91.1L35.2,177v144.2L168,410.3l132.7-89.2V177L168,91.1z M168,330.9c-44.3,0-80.2-35.9-80.2-80.2
			c0-44.3,35.9-80.2,80.2-80.2c44.3,0,80.2,35.9,80.2,80.2C248.2,295,212.3,330.9,168,330.9z"/>
		<path d="M186.3,248.8c-11.7,0-21.3-9.5-21.3-21.3c0-4.2,1.2-8,3.3-11.3c-1.1-0.1-2.2-0.2-3.3-0.2c-19.8,0-35.8,16-35.8,35.8
			c0,19.8,16,35.8,35.8,35.8s35.8-16,35.8-35.8c0-2.7-0.3-5.4-0.9-8C196.3,246.9,191.5,248.8,186.3,248.8z"/>
	</g>
</g>
</svg>
