<?xml version="1.0" encoding="utf-8"?>
<!-- Generator: Adobe Illustrator 17.1.0, SVG Export Plug-In . SVG Version: 6.00 Build 0)  -->
<!DOCTYPE svg PUBLIC "-//W3C//DTD SVG 1.1//EN" "http://www.w3.org/Graphics/SVG/1.1/DTD/svg11.dtd">
<svg version="1.1" id="Layer_1" xmlns="http://www.w3.org/2000/svg" xmlns:xlink="http://www.w3.org/1999/xlink" x="0px" y="0px"
	 viewBox="0 0 500 500" enable-background="new 0 0 500 500" xml:space="preserve">
<g>
	<ellipse fill="#FFFFFF" cx="251" cy="248.9" rx="117.3" ry="115.9"/>
	<g>
		<path d="M251,27.7l-185.5,120v201.5L251,473.8l185.5-124.6V147.6L251,27.7z M251,362.8c-61.9,0-112.1-50.2-112.1-112.1
			c0-61.9,50.2-112.1,112.1-112.1c61.9,0,112.1,50.2,112.1,112.1C363.1,312.6,312.9,362.8,251,362.8z"/>
		<path d="M276.7,248c-16.4,0-29.7-13.3-29.7-29.7c0-5.8,1.7-11.2,4.6-15.8c-1.5-0.1-3-0.2-4.6-0.2c-27.6,0-50,22.4-50,50
			c0,27.6,22.4,50,50,50s50-22.4,50-50c0-3.8-0.5-7.6-1.3-11.2C290.5,245.4,283.9,248,276.7,248z"/>
	</g>
</g>
</svg>
